# xmcd CD database file
#
# Track frame offsets:
#	150
#	19058
#	40041
#	58949
#
# Disc length: 1063 seconds
#
# Revision: 0
# Processed by: cddbd v1.5.1PL0 Copyright (c) Steve Scherf et al.
# Submitted via: CDex 1.51
#
DISCID=2c042504
DTITLE=Mille Face - 記憶喪失
DYEAR=1900
DGENRE=J ポップ
TTITLE0=記憶喪失
TTITLE1=臆病鳥と太陽
TTITLE2=記憶喪失 (Instrumental)
TTITLE3=臆病鳥と太陽 (Instrumental)
EXTD=
EXTT0=
EXTT1=
EXTT2=
EXTT3=
PLAYORDER=
